<?xml version="1.0" standalone="no"?>
<!DOCTYPE svg PUBLIC "-//W3C//DTD SVG 20010904//EN"
 "http://www.w3.org/TR/2001/REC-SVG-20010904/DTD/svg10.dtd">
<svg version="1.0" xmlns="http://www.w3.org/2000/svg"
 width="512.000000pt" height="512.000000pt" viewBox="0 0 512.000000 512.000000"
 preserveAspectRatio="xMidYMid meet">
<metadata>
Created by potrace 1.16, written by Peter Selinger 2001-2019
</metadata>
<g transform="translate(0.000000,512.000000) scale(0.100000,-0.100000)"
fill="#ffffff" stroke="none">
<path d="M2305 5113 c-671 -72 -1279 -393 -1707 -903 -301 -358 -488 -764
-571 -1240 -19 -109 -21 -162 -21 -410 0 -248 2 -301 21 -410 94 -540 320
-987 693 -1374 383 -398 866 -650 1430 -749 109 -19 162 -21 410 -21 313 0
407 10 653 73 882 228 1600 946 1828 1828 63 246 73 340 73 653 0 313 -10 407
-73 653 -228 881 -946 1600 -1828 1828 -227 58 -334 71 -613 74 -140 2 -273 1
-295 -2z m480 -523 c703 -81 1318 -524 1625 -1172 219 -464 251 -1006 89
-1492 -254 -759 -925 -1306 -1714 -1396 -115 -13 -335 -13 -450 0 -789 90
-1460 637 -1714 1396 -162 486 -130 1028 89 1492 304 642 922 1090 1613 1171
104 12 358 12 462 1z"/>
<path d="M2929 3457 l-886 -380 -383 -894 c-210 -492 -380 -896 -377 -900 4
-3 408 167 900 377 l894 383 381 891 c210 490 382 894 382 899 0 4 -6 7 -12 6
-7 -1 -412 -172 -899 -382z m-241 -684 c157 -97 161 -325 6 -423 -119 -75
-273 -38 -349 84 -26 44 -30 58 -30 125 0 65 4 83 28 123 52 89 132 131 235
124 47 -3 75 -11 110 -33z"/>
</g>
</svg>
